<svg xmlns="http://www.w3.org/2000/svg" viewBox="0 0 128 128" role="img" aria-label="Salesforce">
  <defs>
    <linearGradient id="sf" x1="0" y1="0" x2="1" y2="1">
      <stop offset="0" stop-color="#34B7F1"/>
      <stop offset="1" stop-color="#0070D2"/>
    </linearGradient>
  </defs>
  <path fill="url(#sf)" d="M53.5 24.6c6.8-7.7 18.8-8.5 26.5-1.7a18.9 18.9 0 0 1 4.8 6.5 22.2 22.2 0 0 1 24.1 20.8c0 12-9.4 21.8-21.3 22.2H38.3c-11.9-.4-21.3-10.2-21.3-22.2 0-11.6 8.7-21 19.9-22.1a20.6 20.6 0 0 1 16.6-3.5Z"/>
  <path fill="#fff" d="M38.8 58.8c0-6.8 5.2-11.2 12.7-11.2 3.4 0 6.9.8 9.2 2.2l-1.9 4.6a15.8 15.8 0 0 0-7.4-1.8c-3.9 0-6.2 1.6-6.2 4.1 0 2.4 2.3 3.4 6.9 4.4 6.4 1.4 10.5 3.6 10.5 9.2 0 6.2-5.3 10.2-13.4 10.2-3.8 0-7.8-.9-10.4-2.4l2-4.7c2.3 1.3 5.6 2.2 8.6 2.2 4.2 0 6.5-1.5 6.5-3.8 0-2.1-1.8-3.2-6.8-4.3-6.7-1.6-10.3-4.1-10.3-8.7Z"/>
  <path fill="#fff" d="M66.2 80.1V48.1h6.2v32h-6.2Z"/>
  <path fill="#fff" d="M75.8 64.1c0-9.7 7-16.4 17-16.4 4 0 7.6.8 10.2 2.6l-2.1 4.7c-2.1-1.4-4.7-2-7.9-2-6.3 0-10.6 4.3-10.6 11.1 0 6.9 4.4 11.1 10.6 11.1 3.4 0 6-.8 8.1-2.1l2.1 4.7c-2.7 1.7-6.3 2.6-10.5 2.6-10 0-16.9-6.7-16.9-16.4Z"/>
</svg>

